<svg width="38" height="38" viewBox="0 0 38 38" fill="none" xmlns="http://www.w3.org/2000/svg">
<rect x="2.97192" width="34.2271" height="34.2271" rx="8" transform="rotate(4.98118 2.97192 0)" fill="#7252A4"/>
<path d="M19.1541 11.4312C15.2371 11.0898 11.7726 13.9987 11.4312 17.9157C11.0898 21.8327 13.9988 25.2972 17.9158 25.6386C21.8328 25.98 25.2972 23.071 25.6386 19.154C25.98 15.237 23.0711 11.7726 19.1541 11.4312ZM18.0396 24.2178C14.9062 23.9447 12.5788 21.173 12.852 18.0396C13.1251 14.9061 15.8968 12.5788 19.0302 12.8519C22.1637 13.125 24.491 15.8967 24.2179 19.0302C23.9448 22.1636 21.1731 24.4909 18.0396 24.2178Z" fill="white"/>
<path d="M16.0942 21.9008L22.0868 18.8443L16.7134 14.7971L16.0942 21.9008Z" fill="white"/>
</svg>
