<svg width="42" height="42" viewBox="0 0 42 42" fill="none" xmlns="http://www.w3.org/2000/svg">
<rect y="8.85864" width="34.2271" height="34.2271" rx="8" transform="rotate(-15 0 8.85864)" fill="#23BDEE"/>
<g clip-path="url(#clip0_1_701)">
<path d="M17.6189 21.3599L18.9965 20.9907L19.3656 22.3683L17.988 22.7374L17.6189 21.3599ZM18.3571 24.115L19.7347 23.7459L20.1038 25.1235L18.7263 25.4926L18.3571 24.115ZM20.374 20.6216L21.7516 20.2525L22.1207 21.6301L20.7432 21.9992L20.374 20.6216ZM21.1123 23.3768L22.4898 23.0076L22.859 24.3852L21.4814 24.7543L21.1123 23.3768ZM23.1292 19.8834L24.5068 19.5143L24.8759 20.8918L23.4983 21.261L23.1292 19.8834ZM23.8674 22.6385L25.245 22.2694L25.6141 23.647L24.2365 24.0161L23.8674 22.6385Z" fill="white"/>
<path d="M18.2714 29.3058L27.9144 26.7219C28.6741 26.5184 29.1264 25.735 28.9228 24.9752L26.339 15.3322C26.1354 14.5725 25.3521 14.1202 24.5923 14.3238L23.2148 14.6929L22.8456 13.3153L21.4681 13.6845L21.8372 15.062L17.7045 16.1694L17.3354 14.7918L15.9578 15.1609L16.3269 16.5385L14.9493 16.9076C14.1896 17.1112 13.7373 17.8946 13.9409 18.6543L16.5247 28.2973C16.7283 29.057 17.5117 29.5093 18.2714 29.3058ZM25.3306 17.0789L27.546 25.3442L17.9023 27.9282L15.6876 19.6628L25.3306 17.0789Z" fill="white"/>
</g>
<defs>
<clipPath id="clip0_1_701">
<rect width="17.114" height="17.114" fill="white" transform="translate(10.7672 15.0752) rotate(-15)"/>
</clipPath>
</defs>
</svg>
