<svg width="42" height="42" viewBox="0 0 42 42" fill="none" xmlns="http://www.w3.org/2000/svg">
<rect y="8.85864" width="34.2271" height="34.2271" rx="8" transform="rotate(-15 0 8.85864)" fill="#F88C3D"/>
<g clip-path="url(#clip0_1_706)">
<path d="M20.4017 27.0422L25.0875 18.9262L21.2325 16.7005L16.5468 24.8165C16.4823 24.9284 16.4493 25.0556 16.4512 25.1846L16.7094 28.986L20.13 27.3091C20.2431 27.2463 20.3372 27.154 20.4017 27.0422ZM26.6002 16.3061C26.7892 15.9786 26.8404 15.5894 26.7425 15.2241C26.6446 14.8588 26.4057 14.5474 26.0782 14.3582L24.6931 13.5585C24.3656 13.3695 23.9764 13.3183 23.6111 13.4162C23.2458 13.5141 22.9343 13.753 22.7452 14.0805L21.9455 15.4656L25.8005 17.6913L26.6002 16.3061Z" fill="white"/>
</g>
<defs>
<clipPath id="clip0_1_706">
<rect width="17.114" height="17.114" fill="white" transform="translate(10.7673 15.0752) rotate(-15)"/>
</clipPath>
</defs>
</svg>
