<svg width="137" height="493" viewBox="0 0 137 493" fill="none" xmlns="http://www.w3.org/2000/svg">
<g opacity="0.1">
<path fill-rule="evenodd" clip-rule="evenodd" d="M426.639 7.28174H179.361L102.932 242.471L302.997 387.821L503.068 242.471L426.639 7.28174ZM99 243.743L176.937 3.94824H429.063L507 243.743L302.997 391.948L99 243.743Z" fill="white"/>
<path fill-rule="evenodd" clip-rule="evenodd" d="M432.383 -0.960449H173.612L93.6279 245.069L302.997 397.132L512.372 245.069L432.383 -0.960449ZM90.9041 246.911L90 246.249L171.378 -4.05176H434.628L516 246.249L302.997 400.948L90.9041 246.911Z" fill="white"/>
<path fill-rule="evenodd" clip-rule="evenodd" d="M438.124 -9.21973H167.876L84.3462 247.671L303 406.442L521.659 247.671L438.124 -9.21973ZM81 248.754L165.814 -12.0518H440.191L525 248.754L303 409.948L81 248.754Z" fill="white"/>
<path fill-rule="evenodd" clip-rule="evenodd" d="M530.958 250.279L443.873 -17.4673H162.132L75.0415 250.279L303 415.759L530.958 250.279ZM72.7604 251.821L72 251.269L159.955 -19.1595L160.249 -20.0518H445.751L534 251.269L303.76 418.401L303 418.948L72.7604 251.821Z" fill="white"/>
<path fill-rule="evenodd" clip-rule="evenodd" d="M449.618 -25.7207H156.382L65.7485 252.874L303.003 425.064L540.252 252.874L449.618 -25.7207ZM63 253.772L154.688 -28.0518H451.312L543 253.772L303.003 427.948L63 253.772Z" fill="white"/>
<path fill-rule="evenodd" clip-rule="evenodd" d="M455.357 -33.9741H150.637L56.4434 255.487L303 434.381L549.551 255.487L455.357 -33.9741ZM54.6109 256.725L54 256.287L148.885 -35.3323L149.121 -36.0518H456.879L551.764 255.568L552 256.287L303 436.948L54.6109 256.725Z" fill="white"/>
<path fill-rule="evenodd" clip-rule="evenodd" d="M461.108 -41.2271H144.892L47.1499 259.083L302.997 444.687L558.85 259.083L461.108 -41.2271ZM45.536 260.171L45 259.779L143.353 -42.4187L143.566 -43.0518H462.434L560.798 259.146L561 259.779L302.997 446.948L45.536 260.171Z" fill="white"/>
<path fill-rule="evenodd" clip-rule="evenodd" d="M568.132 261.689L466.85 -49.4633H139.156L37.8677 261.689L303 453.997L568.132 261.689ZM36.4727 262.627L36 262.287L137.83 -50.4993L138.009 -51.0518H467.997L569.821 261.741L570 262.287L303.467 455.603L303 455.948L36.4727 262.627Z" fill="white"/>
<path fill-rule="evenodd" clip-rule="evenodd" d="M472.595 -57.7222H133.405L28.5625 264.292L302.997 463.314L577.432 264.292L472.595 -57.7222ZM27.3863 265.086L27 264.798L132.292 -58.5856L132.436 -59.0518H473.558L578.856 264.343L579 264.798L302.997 464.948L27.3863 265.086Z" fill="white"/>
<path fill-rule="evenodd" clip-rule="evenodd" d="M586.732 266.895L478.341 -65.9756H127.665L19.2685 266.895L303 472.613L586.732 266.895ZM18.3229 267.534L18 267.298L126.76 -66.6834L126.881 -67.0518H479.125L587.879 266.93L588 267.298L303.323 473.712L303 473.948L18.3229 267.534Z" fill="white"/>
<path fill-rule="evenodd" clip-rule="evenodd" d="M596.02 270.11L484.081 -74.2329H121.919L9.97461 270.11L302.994 482.922L596.02 270.11ZM9.24797 270.6L9 270.427L121.319 -75.0518H484.681L597 270.427L303.236 483.77L302.994 483.948L9.24797 270.6Z" fill="white"/>
<path fill-rule="evenodd" clip-rule="evenodd" d="M115.753 -83.0518L115.69 -82.85L0 272.929L0.173024 273.056L303 492.948L303.167 492.821L606 272.929L605.942 272.733L490.253 -83.0518H115.753ZM0.674805 272.71L116.18 -82.481H489.826L605.325 272.71L303 492.228L0.674805 272.71Z" fill="white"/>
</g>
</svg>
